<svg width="209" height="32" viewBox="0 0 209 32" fill="none" xmlns="http://www.w3.org/2000/svg">
<path d="M90.8896 8.1543C92.4469 8.1543 93.8576 8.433 95.1211 8.99121C96.4139 9.52007 97.5159 10.2843 98.4268 11.2832C99.3671 12.2823 100.087 13.5026 100.587 14.9424C101.116 16.382 101.38 17.9979 101.38 19.79V20.5225C101.38 20.8969 101.077 21.2011 100.702 21.2012H84.1904C84.3374 23.493 84.9694 25.3144 86.0859 26.666C87.2319 28.0176 88.8329 28.6943 90.8896 28.6943C91.5653 28.6943 92.2413 28.6059 92.917 28.4297C93.5928 28.2534 94.2102 27.9738 94.7686 27.5918C95.3562 27.2098 95.8562 26.7399 96.2676 26.1816C96.5752 25.7642 96.809 25.2973 96.9688 24.7812C97.0643 24.4725 97.3379 24.2422 97.6611 24.2422H100.139C100.558 24.2422 100.878 24.6195 100.774 25.0254C100.538 25.9473 100.168 26.7882 99.6611 27.5479C99.0441 28.4881 98.28 29.2959 97.3691 29.9717C96.4876 30.6181 95.4886 31.1181 94.3721 31.4707C93.2555 31.8233 92.0944 32 90.8896 32C89.303 32 87.8632 31.7204 86.5703 31.1621C85.2775 30.6038 84.1755 29.8106 83.2646 28.7822C82.3537 27.7538 81.648 26.5044 81.1484 25.0352C80.649 23.566 80.3994 21.9203 80.3994 20.0986C80.3994 18.2769 80.6489 16.6313 81.1484 15.1621C81.648 13.6636 82.3538 12.4005 83.2646 11.3721C84.1756 10.3436 85.2774 9.54951 86.5703 8.99121C87.8631 8.433 89.3031 8.15432 90.8896 8.1543ZM114.178 8.1543C115.735 8.1543 117.146 8.43305 118.409 8.99121C119.702 9.52013 120.805 10.2841 121.716 11.2832C122.656 12.2822 123.375 13.5026 123.875 14.9424C124.404 16.382 124.669 17.9979 124.669 19.79V20.5225C124.669 20.897 124.365 21.2011 123.99 21.2012H107.479C107.625 23.493 108.257 25.3144 109.374 26.666C110.52 28.0176 112.121 28.6942 114.178 28.6943C114.854 28.6943 115.53 28.606 116.206 28.4297C116.882 28.2534 117.498 27.9737 118.057 27.5918C118.644 27.2098 119.144 26.7399 119.556 26.1816C119.863 25.7642 120.097 25.2973 120.257 24.7812C120.352 24.4725 120.626 24.2422 120.949 24.2422H123.427C123.846 24.2422 124.167 24.6195 124.063 25.0254C123.828 25.9474 123.456 26.7882 122.949 27.5479C122.332 28.4881 121.568 29.2959 120.657 29.9717C119.776 30.6181 118.777 31.1181 117.66 31.4707C116.544 31.8233 115.382 32 114.178 32C112.591 31.9999 111.151 31.7204 109.858 31.1621C108.566 30.6038 107.464 29.8106 106.553 28.7822C105.642 27.7538 104.937 26.5044 104.438 25.0352C103.938 23.566 103.688 21.9204 103.688 20.0986C103.688 18.2769 103.938 16.6313 104.438 15.1621C104.937 13.6637 105.642 12.4004 106.553 11.3721C107.464 10.3436 108.565 9.54952 109.858 8.99121C111.151 8.43297 112.591 8.15435 114.178 8.1543ZM135.342 8.26562C136.622 8.26563 137.801 8.38322 138.877 8.61719C139.953 8.82194 140.898 9.20223 141.713 9.75781C142.556 10.2842 143.225 11.0154 143.72 11.9512C144.125 12.6946 144.395 13.5952 144.526 14.6533C144.575 15.0417 144.262 15.373 143.87 15.373H141.51C141.156 15.3729 140.869 15.099 140.797 14.7529C140.701 14.2953 140.541 13.9024 140.316 13.5742C139.996 13.0771 139.589 12.6821 139.095 12.3896C138.6 12.0972 138.047 11.8924 137.437 11.7754C136.855 11.6292 136.258 11.5567 135.647 11.5566C135.095 11.5566 134.527 11.5998 133.945 11.6875C133.364 11.7752 132.826 11.9369 132.331 12.1709C131.866 12.3756 131.472 12.6677 131.152 13.0479C130.862 13.3988 130.717 13.8673 130.717 14.4521C130.717 15.0953 130.949 15.6366 131.414 16.0752C131.88 16.4846 132.462 16.8355 133.16 17.1279C133.887 17.3911 134.687 17.6254 135.56 17.8301C136.461 18.0056 137.349 18.1957 138.222 18.4004C139.153 18.6051 140.055 18.853 140.928 19.1455C141.717 19.4014 142.417 19.7359 143.027 20.1484L143.539 20.5117C144.118 20.9499 144.585 21.4893 144.941 22.1289C145.378 22.86 145.597 23.7666 145.597 24.8486C145.597 26.1939 145.305 27.3346 144.724 28.2705C144.171 29.1771 143.429 29.9082 142.498 30.4639C141.596 31.0195 140.564 31.4145 139.4 31.6484C138.266 31.8824 137.131 32 135.996 32C134.745 32 133.552 31.853 132.418 31.5605C131.284 31.2973 130.28 30.8739 129.407 30.2891C128.535 29.6749 127.836 28.885 127.312 27.9199C126.879 27.0963 126.605 26.1319 126.49 25.0273C126.451 24.644 126.761 24.3224 127.146 24.3223H129.494C129.859 24.3223 130.154 24.6129 130.21 24.9736C130.295 25.5197 130.464 26.0043 130.717 26.4277C131.066 26.9834 131.517 27.4371 132.069 27.7881C132.651 28.1097 133.291 28.344 133.989 28.4902C134.716 28.6364 135.459 28.709 136.215 28.709C136.797 28.709 137.408 28.6658 138.048 28.5781C138.717 28.4904 139.327 28.3295 139.88 28.0957C140.433 27.8617 140.883 27.5246 141.232 27.0859C141.611 26.618 141.8 26.033 141.8 25.3311C141.8 24.6001 141.582 24.0148 141.146 23.5762C140.738 23.1084 140.185 22.728 139.487 22.4355C138.789 22.1431 137.989 21.9098 137.087 21.7344C136.185 21.5297 135.269 21.3248 134.338 21.1201C133.436 20.9154 132.535 20.6664 131.633 20.374C130.731 20.0816 129.931 19.7013 129.232 19.2334C128.534 18.7655 127.968 18.1656 127.531 17.4346C127.124 16.7034 126.92 15.7969 126.92 14.7148C126.92 13.5743 127.168 12.5943 127.662 11.7754C128.186 10.9568 128.84 10.2989 129.625 9.80176C130.44 9.27533 131.342 8.89511 132.331 8.66113C133.349 8.39795 134.353 8.26563 135.342 8.26562ZM5.28418 20.5C6.05027 20.1003 6.96345 20.1002 7.72949 20.5C8.60218 20.9555 9.1493 21.8584 9.14941 22.8428V23.9307L9.16797 24.0732C9.2957 25.0599 9.89585 25.9461 10.8096 26.498L12.1992 27.2236C12.9508 27.6159 13.4219 28.3935 13.4219 29.2412C13.4218 30.0889 12.9507 30.8666 12.1992 31.2588L12.002 31.3613C11.2359 31.7611 10.3228 31.7611 9.55664 31.3613C8.68381 30.9058 8.13578 30.0031 8.13574 29.0186V27.8613L8.1377 27.8604C8.00408 26.8903 7.43919 26.0114 6.57324 25.4258L6.5 25.375L5.08594 24.6377C4.33463 24.2454 3.86328 23.4677 3.86328 22.6201C3.86341 21.7726 4.33457 20.9947 5.08594 20.6025L5.28418 20.5ZM18.5107 27.1211C19.2769 26.7213 20.1899 26.7213 20.9561 27.1211L21.1533 27.2236C21.9049 27.6159 22.376 28.3935 22.376 29.2412C22.3759 30.0889 21.9048 30.8666 21.1533 31.2588L20.9561 31.3613C20.19 31.7611 19.2769 31.7611 18.5107 31.3613L18.3125 31.2588C17.5611 30.8666 17.0899 30.0888 17.0898 29.2412C17.0898 28.3936 17.5612 27.6159 18.3125 27.2236L18.5107 27.1211ZM31.377 20.5C32.143 20.1002 33.0562 20.1003 33.8223 20.5L34.0195 20.6025C34.771 20.9947 35.243 21.7725 35.2432 22.6201C35.2432 23.4679 34.7711 24.2455 34.0195 24.6377L32.6064 25.375L32.5322 25.4258C31.6665 26.0114 31.1013 26.8904 30.9678 27.8604L30.9697 27.8613V29.0186C30.9697 30.0031 30.4226 30.9058 29.5498 31.3613C28.7837 31.7611 27.8706 31.7612 27.1045 31.3613L26.9072 31.2588C26.1557 30.8666 25.6846 30.0889 25.6846 29.2412C25.6846 28.3935 26.1557 27.6159 26.9072 27.2236L28.2969 26.498C29.2106 25.9461 29.8108 25.0599 29.9385 24.0732L29.957 23.9307V22.8428C29.9571 21.8583 30.5042 20.9555 31.377 20.5ZM152.802 0.0361328C153.176 0.0361441 153.48 0.340345 153.48 0.714844V11.124H155.006C155.129 10.8426 155.253 10.5451 155.376 10.2324C155.53 9.91962 155.7 9.63794 155.885 9.3877C156.1 9.10622 156.347 8.88686 156.624 8.73047C156.901 8.57407 157.241 8.4961 157.642 8.49609H158.767C159.141 8.49618 159.444 8.79952 159.444 9.17383V11.3369C159.444 11.7114 159.141 12.0146 158.767 12.0146H153.48V25.8906C153.48 26.1721 153.496 26.4538 153.526 26.7354C153.557 26.9855 153.65 27.2205 153.804 27.4395C153.958 27.6271 154.22 27.7831 154.59 27.9082C154.96 28.002 155.468 28.0488 156.115 28.0488H158.721C159.095 28.0491 159.398 28.3532 159.398 28.7275V30.8896C159.398 31.264 159.095 31.5681 158.721 31.5684H154.128C153.234 31.5684 152.494 31.4114 151.908 31.0986C151.323 30.7858 150.844 30.3949 150.475 29.9258C150.136 29.4254 149.889 28.893 149.735 28.3301C149.612 27.736 149.551 27.1732 149.551 26.6416V12.0146H146.899C146.525 12.0146 146.222 11.7114 146.222 11.3369V9.17383C146.222 8.79951 146.525 8.49617 146.899 8.49609H149.551V0.714844C149.551 0.340338 149.854 0.0361328 150.229 0.0361328H152.802ZM171.901 8.51855C172.87 8.51856 173.826 8.62909 174.768 8.85059C175.737 9.04441 176.609 9.37694 177.385 9.84766C178.16 10.2906 178.782 10.8864 179.253 11.6338C179.724 12.3813 179.959 13.3087 179.959 14.416V30.8291C179.959 31.2035 179.656 31.5068 179.281 31.5068H177.107C176.733 31.5068 176.429 31.2036 176.429 30.8291V27.5098H175.142C174.56 28.9495 173.674 29.9738 172.483 30.583C171.293 31.1922 170.005 31.4971 168.62 31.4971C167.928 31.497 167.181 31.3865 166.378 31.165C165.575 30.9712 164.827 30.6244 164.135 30.126C163.443 29.5999 162.861 28.8938 162.391 28.0078C161.92 27.0941 161.685 25.9449 161.685 24.5605C161.685 22.4009 162.46 20.8229 164.011 19.8262C165.561 18.8295 167.707 18.3311 170.448 18.3311H176.429V15.2051C176.429 14.5132 176.29 13.9458 176.014 13.5029C175.737 13.0323 175.363 12.6577 174.893 12.3809C174.45 12.104 173.95 11.9106 173.396 11.7998C172.843 11.6891 172.289 11.6338 171.735 11.6338C170.24 11.6338 168.994 11.9244 167.997 12.5059C167.139 12.9827 166.61 13.84 166.408 15.0762C166.351 15.4274 166.06 15.704 165.704 15.7041H163.513C163.127 15.7041 162.817 15.3823 162.858 14.999C162.97 13.9737 163.229 13.0873 163.637 12.3398C164.163 11.4262 164.827 10.6924 165.63 10.1387C166.461 9.5572 167.416 9.14178 168.496 8.89258C169.576 8.64342 170.711 8.51859 171.901 8.51855ZM187.11 8.43555C187.485 8.4357 187.788 8.73904 187.788 9.11328V10.9326H189.225C189.584 10.3384 189.913 9.87775 190.212 9.55078C190.511 9.22377 190.916 8.98556 191.425 8.83691C191.963 8.65862 192.652 8.55415 193.489 8.52441C194.188 8.47485 195.084 8.44673 196.178 8.43848C196.552 8.43566 196.856 8.73895 196.856 9.11328V11.1025C196.856 11.4767 196.553 11.78 196.179 11.7803H187.788V30.8125C187.788 31.1869 187.485 31.4911 187.11 31.4912H184.65C184.276 31.4912 183.973 31.187 183.973 30.8125V9.11328C183.973 8.73897 184.276 8.43558 184.65 8.43555H187.11ZM65.4932 0C66.169 0 66.8893 0.0145613 67.6533 0.0439453C68.4466 0.0439549 69.2253 0.0886135 69.9893 0.176758C70.7531 0.235523 71.4581 0.338466 72.1045 0.485352C72.7803 0.632274 73.3541 0.851664 73.8242 1.14551C74.8527 1.76257 75.7196 2.61495 76.4248 3.70215C77.1594 4.78937 77.5264 6.12711 77.5264 7.71387C77.5263 8.88901 77.3351 9.88829 76.9531 10.7109C76.5712 11.5335 76.1012 12.224 75.543 12.7822C75.0141 13.3405 74.4558 13.7667 73.8682 14.0605C73.2805 14.3544 72.766 14.5456 72.3252 14.6338V15.9561C72.8541 15.9854 73.4861 16.132 74.2207 16.3965C74.9846 16.6316 75.7041 17.0287 76.3799 17.5869C77.0557 18.1452 77.6295 18.8646 78.0996 19.7461C78.5991 20.6276 78.8486 21.715 78.8486 23.0078C78.8486 24.1538 78.6428 25.2411 78.2314 26.2695C77.8201 27.298 77.2027 28.194 76.3799 28.958C75.5865 29.722 74.5876 30.3394 73.3828 30.8096C72.2075 31.2503 70.8414 31.4707 69.2842 31.4707H54.7559C54.3815 31.4707 54.0774 31.1673 54.0771 30.793V0.677734C54.0773 0.303398 54.3815 0 54.7559 0H65.4932ZM170.905 20.9062C170.075 20.9062 169.312 20.9615 168.62 21.0723C167.928 21.183 167.319 21.3765 166.793 21.6533C166.295 21.9302 165.907 22.3038 165.63 22.7744C165.353 23.2451 165.215 23.8408 165.215 24.5605C165.215 25.0311 165.284 25.5021 165.422 25.9727C165.588 26.4157 165.838 26.8178 166.17 27.1777C166.502 27.5099 166.918 27.7863 167.416 28.0078C167.942 28.2293 168.565 28.3408 169.285 28.3408C170.393 28.3408 171.292 28.2016 171.984 27.9248C172.704 27.648 173.272 27.3162 173.688 26.9287C174.13 26.5412 174.449 26.1531 174.643 25.7656C174.864 25.3782 175.031 25.0874 175.142 24.8936H176.429V20.9062H170.905ZM58.2646 27.9443H68.7549C70.6059 27.9443 72.0458 27.4452 73.0742 26.4463C74.1321 25.4472 74.6611 24.0658 74.6611 22.3027C74.6611 21.2743 74.4699 20.4219 74.0879 19.7461C73.7059 19.0705 73.1922 18.5411 72.5459 18.1592C71.9288 17.7478 71.2085 17.4692 70.3857 17.3223C69.563 17.146 68.7106 17.0576 67.8291 17.0576H58.2646V27.9443ZM14.2373 20.5C15.0035 20.1002 15.9174 20.1002 16.6836 20.5L16.8809 20.6035C17.6321 20.9957 18.1034 21.7726 18.1035 22.6201C18.1035 23.4678 17.6323 24.2454 16.8809 24.6377L16.6836 24.7412C15.9174 25.1411 15.0035 25.1411 14.2373 24.7412L14.04 24.6377C13.2887 24.2454 12.8174 23.4677 12.8174 22.6201C12.8175 21.7727 13.2889 20.9958 14.04 20.6035L14.2373 20.5ZM22.7832 20.5C23.5493 20.1003 24.4624 20.1002 25.2285 20.5L25.4258 20.6035C26.1772 20.9957 26.6483 21.7725 26.6484 22.6201C26.6484 23.4679 26.1773 24.2455 25.4258 24.6377L25.2285 24.7412C24.4625 25.1409 23.5493 25.1409 22.7832 24.7412L22.5859 24.6377C21.8344 24.2455 21.3623 23.4679 21.3623 22.6201C21.3624 21.7725 21.8345 20.9957 22.5859 20.6035L22.7832 20.5ZM26.8711 13.8965C27.6373 13.4966 28.5512 13.4966 29.3174 13.8965L29.5146 14C30.2658 14.3922 30.7372 15.1692 30.7373 16.0166C30.7373 16.8642 30.266 17.6419 29.5146 18.0342L29.3174 18.1377C28.5512 18.5375 27.6373 18.5375 26.8711 18.1377L25.5176 17.4307L25.3408 17.3623C24.3513 16.9765 23.2244 17.0019 22.2578 17.4326V17.4316L21.5674 17.793C20.4078 18.3982 19.0248 18.3981 17.8652 17.793L17.1396 17.4141L16.9941 17.3564C15.9849 16.963 14.8354 16.9904 13.8496 17.4297L12.46 18.1543C11.6938 18.5541 10.7798 18.5541 10.0137 18.1543L9.81641 18.0518C9.06496 17.6595 8.59378 16.8818 8.59375 16.0342C8.59375 15.1865 9.06498 14.4088 9.81641 14.0166L10.0137 13.9141C10.7798 13.5143 11.6938 13.5142 12.46 13.9141L13.8799 14.6553V14.6572C14.8762 15.0378 16.001 15.0345 16.9951 14.6494L17.0801 14.6172L17.8652 14.207C19.0248 13.6019 20.4078 13.6019 21.5674 14.207L22.3594 14.6201C23.3301 14.9628 24.4125 15.0391 25.373 14.667L25.458 14.6338L26.8711 13.8965ZM1.41992 13.8799C2.18605 13.4801 3.09909 13.4801 3.86523 13.8799L4.06348 13.9824C4.81483 14.3747 5.28613 15.1524 5.28613 16C5.28608 16.8476 4.81485 17.6253 4.06348 18.0176L3.86523 18.1201C3.09912 18.5198 2.18601 18.5199 1.41992 18.1201L1.22266 18.0176C0.47114 17.6254 5.32872e-05 16.8477 0 16C0 15.1523 0.471104 14.3746 1.22266 13.9824L1.41992 13.8799ZM35.6006 13.8799C36.3667 13.4801 37.2797 13.4801 38.0459 13.8799L38.2432 13.9824C38.9947 14.3746 39.4668 15.1523 39.4668 16C39.4667 16.8477 38.9947 17.6254 38.2432 18.0176L38.0459 18.1201C37.2798 18.5199 36.3667 18.5199 35.6006 18.1201L35.4033 18.0176C34.6518 17.6254 34.1807 16.8477 34.1807 16C34.1807 15.1523 34.6518 14.3746 35.4033 13.9824L35.6006 13.8799ZM90.8896 11.46C88.9798 11.46 87.4662 12.0328 86.3496 13.1787C85.2624 14.3247 84.5722 15.8974 84.2783 17.8955H97.5459C97.4284 17.1317 97.2225 16.3673 96.9287 15.6035C96.6349 14.8395 96.2232 14.1483 95.6943 13.5312C95.1655 12.9143 94.5041 12.4152 93.7109 12.0332C92.9176 11.6512 91.9768 11.46 90.8896 11.46ZM114.178 11.46C112.268 11.46 110.755 12.0331 109.639 13.1787C108.551 14.3247 107.86 15.8974 107.566 17.8955H120.834C120.716 17.1317 120.511 16.3674 120.217 15.6035C119.923 14.8395 119.511 14.1483 118.982 13.5312C118.454 12.9143 117.792 12.4151 116.999 12.0332C116.206 11.6512 115.265 11.46 114.178 11.46ZM58.2646 13.5312H66.6396C69.0193 13.5312 70.7235 13.1204 71.752 12.2979C72.8098 11.4457 73.3388 10.1817 73.3389 8.50684C73.3389 7.39042 73.1631 6.50873 72.8105 5.8623C72.4579 5.21585 71.9725 4.71589 71.3555 4.36328C70.7384 4.01073 70.018 3.79029 69.1953 3.70215C68.4022 3.58468 67.5502 3.52639 66.6396 3.52637H58.2646V13.5312ZM9.86133 0.638672C10.6274 0.238853 11.5405 0.238904 12.3066 0.638672L12.5049 0.741211C13.2562 1.1335 13.7275 1.91117 13.7275 2.75879C13.7275 3.60639 13.2563 4.38412 12.5049 4.77637L11.1143 5.50195C10.2007 6.054 9.60027 6.94013 9.47266 7.92676L9.45508 8.06934V9.15625C9.45508 10.1408 8.90704 11.0445 8.03418 11.5C7.26812 11.8996 6.35489 11.8997 5.58887 11.5L5.3916 11.3965C4.64007 11.0043 4.16895 10.2266 4.16895 9.37891C4.16907 8.53129 4.64015 7.7535 5.3916 7.36133L6.80469 6.62402L6.87891 6.57422C7.74499 5.98849 8.30987 5.10893 8.44336 4.13867L8.44141 4.1377V2.98145C8.44141 1.99699 8.98866 1.09425 9.86133 0.638672ZM14.2373 7.25879C15.0035 6.85895 15.9174 6.85895 16.6836 7.25879L16.8809 7.36133C17.6323 7.75349 18.1034 8.53129 18.1035 9.37891C18.1035 10.2266 17.6323 11.0042 16.8809 11.3965L16.6836 11.5C15.9174 11.8998 15.0035 11.8998 14.2373 11.5L14.04 11.3965C13.2887 11.0042 12.8174 10.2265 12.8174 9.37891C12.8175 8.53132 13.2886 7.75351 14.04 7.36133L14.2373 7.25879ZM22.7832 7.25879C23.5493 6.85907 24.4624 6.85899 25.2285 7.25879L25.4258 7.36133C26.1772 7.75349 26.6483 8.53129 26.6484 9.37891C26.6484 10.2267 26.1773 11.0043 25.4258 11.3965L25.2285 11.5C24.4625 11.8997 23.5493 11.8996 22.7832 11.5L22.5859 11.3965C21.8344 11.0043 21.3623 10.2267 21.3623 9.37891C21.3624 8.53129 21.8345 7.75349 22.5859 7.36133L22.7832 7.25879ZM26.6465 0.638672C27.4126 0.238847 28.3257 0.238887 29.0918 0.638672C29.9647 1.0942 30.5127 1.99687 30.5127 2.98145V4.1377L30.5107 4.13867C30.6442 5.10894 31.2091 5.98849 32.0752 6.57422L32.1494 6.62402L33.5625 7.36133C34.3139 7.75352 34.785 8.53133 34.7852 9.37891C34.7852 10.2265 34.3138 11.0042 33.5625 11.3965L33.3652 11.5C32.5991 11.8998 31.6851 11.8998 30.9189 11.5C30.0461 11.0445 29.499 10.1408 29.499 9.15625V8.06934L29.4805 7.92676C29.3528 6.94001 28.7527 6.05397 27.8389 5.50195L26.4492 4.77637C25.6977 4.38416 25.2266 3.60648 25.2266 2.75879C25.2266 1.91105 25.6977 1.13344 26.4492 0.741211L26.6465 0.638672ZM204.485 0.297852C206.732 0.298004 208.554 2.12029 208.554 4.36719L208.553 4.47168C208.497 6.67007 206.697 8.4354 204.485 8.43555L204.38 8.43359C202.182 8.37774 200.416 6.57884 200.416 4.36719C200.416 2.12022 202.238 0.297876 204.485 0.297852ZM204.485 1.04492C202.651 1.04495 201.163 2.53251 201.163 4.36719C201.163 6.20174 202.651 7.68943 204.485 7.68945C206.32 7.6893 207.807 6.20166 207.808 4.36719C207.808 2.53259 206.32 1.04507 204.485 1.04492ZM205.059 2.14062C205.418 2.14069 205.707 2.24164 205.925 2.44336C206.147 2.64074 206.258 2.90202 206.258 3.22656V3.7002C206.258 3.92824 206.185 4.13024 206.038 4.30566C205.896 4.48112 205.7 4.60854 205.451 4.6875V4.69336C205.713 4.84689 205.909 5.12821 206.038 5.53613L206.404 6.74707H205.751L205.392 5.5625C205.329 5.35638 205.229 5.19362 205.092 5.0752C204.959 4.95679 204.805 4.89747 204.632 4.89746H203.353V6.74707H202.72V2.14062H205.059ZM18.5107 0.638672C19.2769 0.238889 20.1899 0.23885 20.9561 0.638672L21.1533 0.741211C21.9049 1.13343 22.376 1.91104 22.376 2.75879C22.3759 3.60648 21.9048 4.38417 21.1533 4.77637L20.9561 4.87891C20.19 5.27871 19.2769 5.27863 18.5107 4.87891L18.3125 4.77637C17.5611 4.38413 17.0899 3.60638 17.0898 2.75879C17.0898 1.91118 17.5612 1.13349 18.3125 0.741211L18.5107 0.638672ZM203.353 4.34473H204.885C205.107 4.34472 205.285 4.28542 205.418 4.16699C205.556 4.04858 205.625 3.89312 205.625 3.7002V3.21973C205.625 3.06186 205.571 2.93438 205.465 2.83789C205.358 2.74145 205.218 2.69337 205.045 2.69336H203.353V4.34473Z" fill="url(#paint0_linear_2887_18009)"/>
<defs>
<linearGradient id="paint0_linear_2887_18009" x1="104.277" y1="0" x2="104.277" y2="32" gradientUnits="userSpaceOnUse">
<stop stop-color="#1E2C0F"/>
<stop offset="1" stop-color="#747751"/>
</linearGradient>
</defs>
</svg>
