<svg width="1248" height="192" viewBox="0 0 1248 192" fill="none" xmlns="http://www.w3.org/2000/svg">
<path d="M543.896 48.7949C553.216 48.795 561.656 50.4658 569.217 53.8066C576.954 56.9717 583.548 61.5431 588.999 67.5215C594.626 73.5 598.934 80.798 601.923 89.4141C605.088 98.0301 606.67 107.702 606.67 118.428V122.81C606.67 125.051 604.853 126.867 602.612 126.867H503.805C504.684 140.582 508.465 151.485 515.146 159.573C522.004 167.662 531.588 171.706 543.896 171.706C547.941 171.706 551.985 171.179 556.029 170.124C560.073 169.069 563.766 167.398 567.106 165.112C570.623 162.826 573.613 160.013 576.074 156.672C577.915 154.173 579.314 151.38 580.27 148.291C580.841 146.443 582.479 145.067 584.413 145.067H599.242C601.75 145.067 603.669 147.324 603.048 149.753C601.636 155.27 599.415 160.303 596.384 164.849C592.691 170.475 588.119 175.311 582.668 179.355C577.393 183.224 571.415 186.213 564.733 188.323C558.052 190.433 551.106 191.488 543.896 191.488C534.401 191.488 525.784 189.818 518.047 186.478C510.31 183.137 503.716 178.389 498.266 172.234C492.815 166.08 488.595 158.606 485.605 149.814C482.616 141.023 481.122 131.175 481.122 120.273C481.122 109.372 482.616 99.5242 485.605 90.7324C488.595 81.765 492.815 74.204 498.266 68.0498C503.716 61.8957 510.31 57.1475 518.047 53.8066C525.784 50.4657 534.401 48.7949 543.896 48.7949ZM683.254 48.7949C692.573 48.795 701.013 50.4658 708.574 53.8066C716.311 56.9717 722.906 61.5431 728.356 67.5215C733.983 73.4999 738.29 80.7981 741.279 89.4141C744.444 98.0301 746.028 107.702 746.028 118.428V122.81C746.028 125.051 744.211 126.867 741.97 126.867H643.162C644.041 140.582 647.821 151.485 654.503 159.573C661.361 167.662 670.945 171.706 683.254 171.706C687.298 171.706 691.343 171.179 695.387 170.124C699.431 169.069 703.123 167.398 706.464 165.112C709.981 162.826 712.97 160.013 715.432 156.672C717.273 154.173 718.671 151.38 719.627 148.291C720.199 146.443 721.835 145.068 723.77 145.067H738.6C741.107 145.067 743.027 147.324 742.405 149.753C740.993 155.27 738.771 160.302 735.74 164.849C732.048 170.475 727.476 175.311 722.025 179.355C716.75 183.224 710.772 186.213 704.091 188.323C697.409 190.433 690.463 191.488 683.254 191.488C673.759 191.488 665.142 189.818 657.405 186.478C649.668 183.137 643.074 178.389 637.623 172.234C632.172 166.08 627.952 158.606 624.963 149.814C621.974 141.023 620.479 131.175 620.479 120.273C620.48 109.372 621.974 99.5242 624.963 90.7324C627.952 81.765 632.172 74.204 637.623 68.0498C643.074 61.8955 649.668 57.1476 657.405 53.8066C665.142 50.4658 673.759 48.7949 683.254 48.7949ZM809.896 49.4648C817.556 49.4648 824.608 50.1653 831.049 51.5654C837.489 52.7905 843.146 55.0656 848.021 58.3906C853.069 61.5408 857.074 65.9162 860.033 71.5166C862.46 75.9655 864.068 81.3567 864.855 87.6885C865.144 90.0124 863.274 91.9921 860.932 91.9922H846.808C844.692 91.992 842.971 90.3546 842.538 88.2832C841.966 85.5448 841.009 83.1933 839.666 81.2295C837.751 78.2543 835.313 75.8917 832.354 74.1416C829.394 72.3916 826.086 71.1658 822.431 70.4658C818.949 69.5909 815.381 69.1534 811.726 69.1533C808.418 69.1533 805.023 69.4164 801.541 69.9414C798.06 70.4665 794.838 71.4291 791.879 72.8291C789.094 74.0541 786.745 75.8044 784.83 78.0791C783.089 80.1793 782.218 82.9802 782.218 86.4805C782.218 90.3304 783.61 93.5683 786.396 96.1934C789.181 98.6435 792.663 100.744 796.841 102.494C801.193 104.069 805.98 105.469 811.202 106.694C816.599 107.744 821.909 108.882 827.132 110.107C832.702 111.332 838.099 112.82 843.321 114.57C848.718 116.32 853.418 118.682 857.422 121.657C861.6 124.457 864.907 128.046 867.344 132.421C869.955 136.796 871.262 142.222 871.262 148.697C871.262 156.748 869.52 163.574 866.038 169.174C862.731 174.599 858.292 178.975 852.722 182.3C847.325 185.625 841.145 187.988 834.183 189.388C827.393 190.788 820.603 191.488 813.813 191.488C806.328 191.488 799.191 190.613 792.402 188.863C785.613 187.288 779.607 184.75 774.385 181.25C769.162 177.575 764.984 172.849 761.851 167.074C759.255 162.145 757.615 156.375 756.931 149.766C756.693 147.471 758.551 145.548 760.857 145.548H774.907C777.092 145.548 778.85 147.286 779.187 149.444C779.695 152.712 780.706 155.613 782.218 158.147C784.307 161.473 787.006 164.186 790.313 166.286C793.795 168.211 797.625 169.611 801.803 170.486C806.154 171.361 810.593 171.8 815.119 171.8C818.601 171.8 822.257 171.537 826.087 171.012C830.09 170.487 833.746 169.524 837.054 168.124C840.361 166.724 843.06 164.711 845.149 162.086C847.412 159.286 848.543 155.785 848.543 151.585C848.543 147.21 847.238 143.71 844.627 141.085C842.19 138.285 838.882 136.009 834.704 134.259C830.526 132.509 825.739 131.109 820.343 130.059C814.946 128.834 809.462 127.608 803.892 126.383C798.495 125.158 793.098 123.67 787.701 121.92C782.305 120.17 777.518 117.895 773.34 115.095C769.162 112.295 765.767 108.706 763.156 104.331C760.719 99.9559 759.5 94.5307 759.5 88.0557C759.5 81.2301 760.98 75.3662 763.939 70.4658C767.073 65.5658 770.99 61.6284 775.689 58.6533C780.564 55.5032 785.96 53.2273 791.879 51.8271C797.972 50.2521 803.978 49.4649 809.896 49.4648ZM37.085 119.82C38.2444 119.215 39.6267 119.215 40.7861 119.82L52.6016 125.987C53.9226 126.677 54.751 128.043 54.751 129.533V143.202L54.8613 144.054C55.6251 149.959 59.2154 155.264 64.6836 158.567L78.1689 165.605C79.49 166.295 80.3184 167.661 80.3184 169.151V180.81C80.3184 182.3 79.49 183.667 78.1689 184.356L66.3535 190.522C65.194 191.128 63.8118 191.128 62.6523 190.522L50.8369 184.356C49.5159 183.667 48.6875 182.3 48.6875 180.81V166.727L48.6992 166.721C47.9003 160.915 44.5203 155.653 39.3379 152.148L38.8936 151.849L25.2695 144.738C23.9485 144.049 23.1201 142.681 23.1201 141.191V129.533C23.1201 128.043 23.9487 126.677 25.2695 125.987L37.085 119.82ZM116.233 159.438C117.393 158.833 118.775 158.834 119.935 159.438L131.75 165.605C133.071 166.295 133.899 167.661 133.899 169.151V180.81C133.899 182.3 133.071 183.667 131.75 184.356L119.935 190.522C118.775 191.127 117.393 191.128 116.233 190.522L104.418 184.356C103.097 183.667 102.269 182.3 102.269 180.81V169.151C102.269 167.661 103.097 166.295 104.418 165.605L116.233 159.438ZM193.228 119.82C194.387 119.215 195.769 119.215 196.929 119.82L208.744 125.987C210.065 126.677 210.894 128.043 210.894 129.533V141.191C210.894 142.682 210.065 144.049 208.744 144.738L195.12 151.849L194.677 152.148C189.494 155.653 186.113 160.915 185.314 166.721L185.326 166.727V180.81C185.326 182.3 184.498 183.667 183.177 184.356L171.361 190.522C170.202 191.127 168.82 191.128 167.66 190.522L155.845 184.356C154.524 183.667 153.695 182.3 153.695 180.81V169.151C153.695 167.661 154.524 166.295 155.845 165.605L169.33 158.567C174.798 155.264 178.389 149.959 179.152 144.054L179.263 143.202V129.533C179.263 128.043 180.091 126.677 181.412 125.987L193.228 119.82ZM914.381 0.217773C916.622 0.21807 918.438 2.03548 918.438 4.27637V66.5645H927.568C928.306 64.8801 929.044 63.102 929.781 61.2305C930.703 59.3586 931.719 57.6733 932.825 56.1758C934.116 54.4912 935.591 53.18 937.251 52.2441C938.911 51.3082 940.94 50.8409 943.338 50.8408H950.07C952.311 50.8408 954.128 52.6576 954.128 54.8984V67.8418C954.128 70.0829 952.311 71.8994 950.07 71.8994H918.438V154.932C918.438 156.616 918.53 158.301 918.715 159.985C918.899 161.483 919.453 162.887 920.375 164.197C921.297 165.32 922.865 166.256 925.078 167.005C927.291 167.566 930.335 167.848 934.208 167.848H949.794C952.035 167.848 953.851 169.664 953.852 171.905V184.849C953.852 187.09 952.035 188.906 949.794 188.906H922.312C916.963 188.906 912.537 187.97 909.032 186.099C905.528 184.227 902.667 181.887 900.454 179.079C898.425 176.084 896.951 172.901 896.028 169.532C895.291 165.976 894.922 162.606 894.922 159.424V71.8994H879.059C876.818 71.8992 875.001 70.0828 875.001 67.8418V54.8984C875.001 52.6577 876.818 50.841 879.059 50.8408H894.922V4.27637C894.922 2.0353 896.738 0.217773 898.979 0.217773H914.381ZM1028.67 50.9766C1034.47 50.9766 1040.19 51.6394 1045.82 52.9648C1051.62 54.1247 1056.84 56.1129 1061.48 58.9297C1066.12 61.5808 1069.85 65.1436 1072.67 69.6172C1075.48 74.0908 1076.89 79.6421 1076.89 86.2695V184.483C1076.89 186.724 1075.07 188.541 1072.83 188.541H1059.82C1057.58 188.541 1055.76 186.724 1055.76 184.483V164.62H1048.06C1044.58 173.236 1039.28 179.366 1032.15 183.012C1025.03 186.657 1017.32 188.48 1009.04 188.48C1004.9 188.48 1000.42 187.818 995.617 186.492C990.812 185.332 986.338 183.261 982.195 180.278C978.053 177.13 974.574 172.905 971.757 167.603C968.94 162.135 967.531 155.258 967.531 146.974C967.531 134.05 972.171 124.605 981.45 118.64C990.729 112.675 1003.57 109.693 1019.97 109.693H1055.76V90.9912C1055.76 86.849 1054.94 83.4518 1053.28 80.8008C1051.62 77.9841 1049.38 75.7477 1046.57 74.0908C1043.92 72.434 1040.93 71.2731 1037.62 70.6104C1034.31 69.9477 1030.99 69.6172 1027.68 69.6172C1018.73 69.6172 1011.27 71.3564 1005.31 74.8359C1000.17 77.6893 997.003 82.8154 995.798 90.2139C995.455 92.317 993.716 93.9736 991.585 93.9736H978.473C976.166 93.9735 974.306 92.0494 974.555 89.7559C975.22 83.6202 976.773 78.3155 979.213 73.8428C982.361 68.3749 986.338 63.9828 991.143 60.6689C996.113 57.1894 1001.83 54.7051 1008.29 53.2139C1014.75 51.7227 1021.55 50.9766 1028.67 50.9766ZM1119.68 50.4795C1121.92 50.4797 1123.74 52.2962 1123.74 54.5371V65.4238H1132.33C1134.48 61.8659 1136.45 59.1073 1138.24 57.1504C1140.03 55.1936 1142.45 53.7704 1145.5 52.8809C1148.72 51.8134 1152.84 51.1906 1157.85 51.0127C1162.03 50.7161 1167.4 50.5435 1173.94 50.4941C1176.18 50.4773 1178 52.2961 1178 54.5371V66.4355C1178 68.6764 1176.18 70.4941 1173.94 70.4941H1123.74V184.387C1123.74 186.628 1121.92 188.444 1119.68 188.444H1104.96C1102.72 188.444 1100.9 186.628 1100.9 184.387V54.5371C1100.9 52.296 1102.72 50.4795 1104.96 50.4795H1119.68ZM391.922 0C395.966 0 400.275 0.087836 404.847 0.263672C409.594 0.263675 414.254 0.528148 418.826 1.05566C423.398 1.40735 427.618 2.02319 431.486 2.90234C435.53 3.78154 438.96 5.0991 441.773 6.85742C447.928 10.55 453.115 15.6495 457.335 22.1553C461.731 28.6613 463.929 36.6629 463.929 46.1582C463.929 53.1913 462.786 59.1695 460.5 64.0928C458.214 69.0162 455.4 73.1493 452.06 76.4902C448.895 79.831 445.554 82.3813 442.037 84.1396C438.52 85.898 435.442 87.0408 432.805 87.5684V95.4805C435.97 95.6563 439.751 96.5357 444.146 98.1182C448.718 99.5249 453.026 101.899 457.07 105.24C461.114 108.581 464.544 112.889 467.357 118.164C470.346 123.439 471.841 129.945 471.841 137.682C471.841 144.539 470.611 151.046 468.149 157.2C465.688 163.354 461.994 168.717 457.07 173.289C452.323 177.861 446.344 181.554 439.135 184.367C432.101 187.005 423.925 188.323 414.605 188.323H327.667C325.426 188.323 323.609 186.506 323.609 184.265V4.05762C323.61 1.81677 325.426 2.26776e-05 327.667 0H391.922ZM1022.71 125.102C1017.74 125.102 1013.18 125.434 1009.04 126.097C1004.9 126.759 1001.25 127.919 998.102 129.576C995.119 131.233 992.799 133.47 991.143 136.287C989.486 139.104 988.657 142.666 988.657 146.974C988.657 149.79 989.071 152.608 989.899 155.425C990.894 158.076 992.386 160.478 994.374 162.632C996.362 164.62 998.848 166.277 1001.83 167.603C1004.98 168.928 1008.71 169.591 1013.01 169.591C1019.64 169.591 1025.03 168.762 1029.17 167.105C1038.46 163.532 1043.35 157.208 1048.06 148.962H1055.76V125.102H1022.71ZM348.666 167.223H411.44C422.518 167.223 431.134 164.233 437.288 158.255C443.618 152.276 446.784 144.011 446.784 133.461C446.784 127.307 445.641 122.208 443.355 118.164C441.07 114.12 437.992 110.955 434.124 108.669C430.432 106.207 426.123 104.535 421.2 103.656C416.277 102.601 411.176 102.074 405.901 102.074H348.666V167.223ZM90.666 119.82C91.8256 119.215 93.2086 119.215 94.3682 119.82L106.184 125.987C107.504 126.677 108.333 128.043 108.333 129.533V141.191C108.333 142.681 107.505 144.049 106.184 144.738L94.3682 150.904C93.2086 151.509 91.8256 151.509 90.666 150.904L78.8506 144.738C77.5296 144.049 76.7012 142.682 76.7012 141.191V129.533C76.7012 128.043 77.5297 126.677 78.8506 125.987L90.666 119.82ZM141.801 119.82C142.96 119.215 144.342 119.215 145.502 119.82L157.317 125.987C158.638 126.677 159.467 128.043 159.467 129.533V141.191C159.467 142.682 158.638 144.049 157.317 144.738L145.502 150.904C144.342 151.509 142.96 151.509 141.801 150.904L129.985 144.738C128.664 144.049 127.836 142.682 127.836 141.191V129.533C127.836 128.043 128.664 126.677 129.985 125.987L141.801 119.82ZM116.133 80.2021C117.292 79.5971 118.675 79.5971 119.834 80.2021L133.799 87.4902C139.608 89.541 146.086 89.9942 151.834 87.7676L152.343 87.5713L166.266 80.3047C167.425 79.6996 168.807 79.6997 169.967 80.3047L181.782 86.4707C183.103 87.1601 183.932 88.5275 183.932 90.0176V101.676C183.932 103.166 183.103 104.532 181.782 105.222L169.967 111.389C168.807 111.994 167.425 111.994 166.266 111.389L152.698 104.308L151.642 103.896C145.72 101.587 138.975 101.741 133.19 104.319V104.314L119.834 111.286C118.675 111.891 117.292 111.891 116.133 111.286L102.564 104.205L101.693 103.865C95.6542 101.511 88.7769 101.669 82.8779 104.298L69.0928 111.491C67.9333 112.096 66.551 112.096 65.3916 111.491L53.5762 105.324C52.2553 104.635 51.4268 103.268 51.4268 101.778V90.1201C51.4268 88.63 52.2551 87.2627 53.5762 86.5732L65.3916 80.4082C66.5511 79.8031 67.9333 79.8031 69.0928 80.4082L83.0576 87.6963V87.707C89.0198 89.9848 95.7516 89.9697 101.701 87.665L102.21 87.4688L116.133 80.2021ZM13.9648 80.2021C15.1243 79.5971 16.5065 79.5972 17.666 80.2021L29.4814 86.3691C30.8025 87.0586 31.6309 88.4249 31.6309 89.915V101.573C31.6309 103.063 30.8025 104.431 29.4814 105.12L17.666 111.286C16.5065 111.891 15.1243 111.891 13.9648 111.286L2.14941 105.12C0.828369 104.431 0 103.063 0 101.573V89.915C0 88.425 0.828442 87.0586 2.14941 86.3691L13.9648 80.2021ZM218.502 80.2021C219.661 79.5971 221.044 79.5972 222.203 80.2021L234.02 86.3691C235.34 87.0587 236.168 88.4251 236.168 89.915V101.573C236.168 103.063 235.34 104.431 234.02 105.12L222.203 111.286C221.044 111.891 219.661 111.891 218.502 111.286L206.687 105.12C205.365 104.431 204.537 103.063 204.537 101.573V89.915C204.537 88.425 205.366 87.0586 206.687 86.3691L218.502 80.2021ZM543.896 68.5771C532.467 68.5771 523.41 72.0066 516.729 78.8643C510.223 85.7219 506.09 95.1293 504.332 107.086H583.724C583.02 102.514 581.79 97.9417 580.031 93.3701C578.273 88.7986 575.81 84.667 572.646 80.9746C569.48 77.2821 565.524 74.2917 560.776 72.0059C556.029 69.7201 550.402 68.5772 543.896 68.5771ZM683.254 68.5771C671.824 68.5771 662.768 72.0066 656.086 78.8643C649.58 85.7219 645.448 95.1293 643.689 107.086H723.081C722.378 102.514 721.147 97.9417 719.389 93.3701C717.63 88.7987 715.168 84.667 712.003 80.9746C708.838 77.282 704.881 74.2917 700.134 72.0059C695.386 69.7201 689.76 68.5772 683.254 68.5771ZM348.666 80.9746H398.78C413.023 80.9746 423.222 78.5122 429.376 73.5889C435.706 68.4896 438.871 60.928 438.871 50.9053C438.871 44.2236 437.816 38.9485 435.706 35.0801C433.596 31.2117 430.695 28.2223 427.002 26.1123C423.309 24.0024 419.001 22.6828 414.078 22.1553C409.331 21.452 404.231 21.1006 398.78 21.1006H348.666V80.9746ZM64.4785 0.96582C65.638 0.360734 67.0202 0.360824 68.1797 0.96582L79.9951 7.13281C81.3161 7.82224 82.1445 9.18861 82.1445 10.6787V22.3369C82.1445 23.827 81.3161 25.1944 79.9951 25.8838L66.5107 32.9209C61.0424 36.2243 57.4513 41.5296 56.6875 47.4346L56.5771 48.2861V61.9551C56.5771 63.4452 55.7488 64.8125 54.4277 65.502L42.6123 71.668C41.4528 72.2729 40.0706 72.2731 38.9111 71.668L27.0957 65.502C25.7747 64.8125 24.9463 63.4452 24.9463 61.9551V50.2969C24.9463 48.8069 25.7749 47.4405 27.0957 46.751L40.7197 39.6406L41.1641 39.3398C46.3465 35.8348 49.7265 30.5735 50.5254 24.7676L50.5137 24.7617V10.6787C50.5137 9.1887 51.3422 7.82229 52.6631 7.13281L64.4785 0.96582ZM90.666 40.584C91.8256 39.9788 93.2086 39.9788 94.3682 40.584L106.184 46.751C107.504 47.4405 108.333 48.8069 108.333 50.2969V61.9551C108.333 63.4452 107.505 64.8125 106.184 65.502L94.3682 71.668C93.2086 72.2731 91.8256 72.2731 90.666 71.668L78.8506 65.502C77.5295 64.8125 76.7012 63.4452 76.7012 61.9551V50.2969C76.7012 48.8069 77.5298 47.4405 78.8506 46.751L90.666 40.584ZM141.801 40.584C142.96 39.9789 144.342 39.9789 145.502 40.584L157.317 46.751C158.638 47.4404 159.467 48.8068 159.467 50.2969V61.9551C159.467 63.4452 158.638 64.8125 157.317 65.502L145.502 71.668C144.342 72.273 142.96 72.273 141.801 71.668L129.985 65.502C128.664 64.8125 127.836 63.4452 127.836 61.9551V50.2969C127.836 48.8068 128.664 47.4404 129.985 46.751L141.801 40.584ZM164.921 0.96582C166.08 0.360731 167.463 0.360827 168.622 0.96582L180.438 7.13281C181.759 7.82224 182.587 9.1886 182.587 10.6787V24.7617L182.575 24.7676C183.374 30.5736 186.755 35.8348 191.938 39.3398L192.381 39.6406L206.005 46.751C207.326 47.4404 208.154 48.8068 208.154 50.2969V61.9551C208.154 63.4452 207.326 64.8125 206.005 65.502L194.189 71.668C193.03 72.273 191.648 72.273 190.488 71.668L178.673 65.502C177.352 64.8125 176.523 63.4452 176.523 61.9551V48.2861L176.413 47.4346C175.649 41.5296 172.059 36.2243 166.591 32.9209L153.105 25.8838C151.784 25.1944 150.956 23.827 150.956 22.3369V10.6787C150.956 9.18871 151.785 7.82229 153.105 7.13281L164.921 0.96582ZM1223.65 1.78516C1237.1 1.78557 1248 12.6862 1248 26.1318L1247.99 26.7607C1247.66 39.9162 1236.89 50.4791 1223.65 50.4795L1223.02 50.4707C1209.87 50.1372 1199.3 39.3676 1199.3 26.1318C1199.31 12.686 1210.21 1.7853 1223.65 1.78516ZM1223.65 6.25195C1212.67 6.2521 1203.77 15.1532 1203.77 26.1318C1203.77 37.1106 1212.67 46.0125 1223.65 46.0127C1234.63 46.0123 1243.53 37.1104 1243.53 26.1318C1243.53 15.1534 1234.63 6.25236 1223.65 6.25195ZM1227.08 12.8105C1229.23 12.8106 1230.96 13.4147 1232.27 14.6221C1233.59 15.8033 1234.26 17.3653 1234.26 19.3076V22.1416C1234.26 23.5065 1233.82 24.7147 1232.94 25.7646C1232.09 26.8145 1230.92 27.5753 1229.43 28.0479V28.0879C1231 29.0066 1232.17 30.6869 1232.94 33.1279L1235.14 40.3721H1231.23L1229.08 33.2852C1228.7 32.0515 1228.1 31.0798 1227.28 30.3711C1226.48 29.6627 1225.57 29.3086 1224.53 29.3086H1216.88V40.3721H1213.09V12.8105H1227.08ZM116.233 0.96582C117.393 0.360729 118.775 0.360842 119.935 0.96582L131.75 7.13281C133.071 7.82224 133.899 9.18859 133.899 10.6787V22.3369C133.899 23.827 133.071 25.1944 131.75 25.8838L119.935 32.0498C118.775 32.6548 117.393 32.6549 116.233 32.0498L104.418 25.8838C103.097 25.1944 102.269 23.827 102.269 22.3369V10.6787C102.269 9.18867 103.097 7.82227 104.418 7.13281L116.233 0.96582ZM1216.88 26.001H1226.04C1227.37 26.0009 1228.44 25.6462 1229.24 24.9375C1230.06 24.2288 1230.47 23.2964 1230.47 22.1416V19.2676C1230.47 18.3227 1230.15 17.5618 1229.51 16.9844C1228.88 16.407 1228.04 16.1172 1227 16.1172H1216.88V26.001Z" fill="#1E2C0F"/>
</svg>
